/* XPM */
static char*a[]={
"49 49 4 1",
/* colors */
"X c #FFFFFF",
"o c None",
"  c #000000",
". c #55188B",
/* pixels */
".................................................",
".................................................",
".................................................",
".................................................",
".................................................",
".................................................",
".................................................",
"..........................  .....................",
".........................   .....................",
"........................    .....................",
".......................   X  ....................",
"......................   XX   ...................",
"....................   XXXXX    .................",
"...................   XXXXXXXX   ................",
".................   XXXXXXXXXXX   ...............",
"................   XXX XXXXXXXXXX   .............",
"...............   XXX   XXXXXXXXXX   ............",
"..............   XXX     XXXXXXXXX   ............",
"............   XXXXXXXXXXXXXXXXXXXX   ...........",
"...........   XXXXXXXXXXXXXXXXXXXXXX   ..........",
".........   XXXXXXXXXXXXXXXXXXXXXXXX   ..........",
"........   XXXXXXXXXXXXXXXXXXXXXXXXXX   .........",
".......  XX XXXXXXXXXXXXXXXXXX XXXXXX   .........",
".......  X  XXXXXXXXXXXXXXXXX  XXXXXX   .........",
".......  XXXXXXXXXXXXXXXXXXXX XXXXXXXX  .........",
".......    XXXXXXXXXXXXXXXXX  XXXXXXXX  .........",
".......     XXXXXXXXXXXXXXX  XXXXXXXXX   ........",
".......  ..  XXX       X    XXXXXXXXXX   ........",
"....... ...  XX          XXXXXXXXXXXXX   ........",
".........   XX   .....  XXXXXXXXXXXXXX   ........",
"..........      .....  XXXXXXXXXXXXXXX   ........",
"............   .....   XXXXXXXXXXXXXXX   ........",
"............. ....    XXXXXXXXXXXXXXXX   ........",
".................    XXXXXXXXXXXXXXXXX   ........",
"................   XXXXXXXXXXXXXXXXXXX   ........",
"...............   XXXXXXXXXXXXXXXXXXXX  .........",
"...............  XXXXXXXXXXXXXXXXXXXXX  .........",
"..............  XXXXXXXXXXXXXXXXXXXXXX  .........",
"..............  XXXXXXXXXXXXXXXXXXXXXX  .........",
".............  XXXXXXXXXXXXXXXXXXXXXXX  .........",
".............  XXXXXXXXXXXXXXXXXXXXXXX   ........",
".............  XXXXXXXXXXXXXXXXXXXXXXX   ........",
".............  XXXXXXXXXXXXXXXXXXXXXXX   ........",
".............                            ........",
".............                             .......",
".................................................",
".................................................",
".................................................",
"................................................."};

/*
fen2ppm.xpm Version 0.1.0. fen2ppm Icon
Copyright (C) 2003  dondalah@ripco.com (Dondalah)

This program is free software; you can redistribute it and/or
modify it under the terms of the GNU General Public License
as published by the Free Software Foundation; either version 2
of the License, or (at your option) any later version.

This program is distributed in the hope that it will be useful,
but WITHOUT ANY WARRANTY; without even the implied warranty of
MERCHANTABILITY or FITNESS FOR A PARTICULAR PURPOSE.  See the
GNU General Public License for more details.

You should have received a copy of the GNU General Public License
along with this program; if not, write to:

	Free Software Foundation, Inc.
	59 Temple Place - Suite 330
	Boston, MA  02111-1307, USA.
*/
